<svg xmlns="http://www.w3.org/2000/svg" viewBox="0 0 580 110" style="max-width:100%; font-family:'Inter', system-ui, sans-serif"><text x="122.0" y="14" text-anchor="middle" fill="#6e7681" font-size="9.5" font-weight="700" letter-spacing="0.5">LOW</text><text x="206.0" y="14" text-anchor="middle" fill="#6e7681" font-size="9.5" font-weight="700" letter-spacing="0.5">MED</text><text x="290.0" y="14" text-anchor="middle" fill="#6e7681" font-size="9.5" font-weight="700" letter-spacing="0.5">HIGH</text><text x="374.0" y="14" text-anchor="middle" fill="#6e7681" font-size="9.5" font-weight="700" letter-spacing="0.5">MACRO</text><text x="424" y="14" fill="#6e7681" font-size="9.5" font-weight="700" letter-spacing="0.5">CONVERGENCE</text><text x="0" y="40.0" fill="#c9d1d9" font-size="11" font-weight="600" font-family="'JetBrains Mono', 'SF Mono', monospace">BTC</text><rect x="86" y="28.0" width="72" height="18" rx="2" ry="2" fill="#1c2128" stroke="#30363d" stroke-width="0.5"/><rect x="122.0" y="28.0" width="7.2" height="18" rx="0" ry="0" fill="#a6e3a1" opacity="0.55"/><line x1="122.0" y1="28.0" x2="122.0" y2="46.0" stroke="#30363d" stroke-width="0.5"/><text x="122.0" y="40.0" text-anchor="middle" fill="#c9d1d9" font-size="10" font-family="'JetBrains Mono', 'SF Mono', monospace" font-weight="700">+1</text><rect x="170" y="28.0" width="72" height="18" rx="2" ry="2" fill="#1c2128" stroke="#30363d" stroke-width="0.5"/><rect x="206.0" y="28.0" width="7.2" height="18" rx="0" ry="0" fill="#a6e3a1" opacity="0.55"/><line x1="206.0" y1="28.0" x2="206.0" y2="46.0" stroke="#30363d" stroke-width="0.5"/><text x="206.0" y="40.0" text-anchor="middle" fill="#c9d1d9" font-size="10" font-family="'JetBrains Mono', 'SF Mono', monospace" font-weight="700">+1</text><rect x="254" y="28.0" width="72" height="18" rx="2" ry="2" fill="#1c2128" stroke="#30363d" stroke-width="0.5"/><rect x="290.0" y="28.0" width="21.6" height="18" rx="0" ry="0" fill="#a6e3a1" opacity="0.55"/><line x1="290.0" y1="28.0" x2="290.0" y2="46.0" stroke="#30363d" stroke-width="0.5"/><text x="290.0" y="40.0" text-anchor="middle" fill="#c9d1d9" font-size="10" font-family="'JetBrains Mono', 'SF Mono', monospace" font-weight="700">+3</text><rect x="338" y="28.0" width="72" height="18" rx="2" ry="2" fill="#1c2128" stroke="#30363d" stroke-width="0.5"/><rect x="374.0" y="28.0" width="14.4" height="18" rx="0" ry="0" fill="#a6e3a1" opacity="0.55"/><line x1="374.0" y1="28.0" x2="374.0" y2="46.0" stroke="#30363d" stroke-width="0.5"/><text x="374.0" y="40.0" text-anchor="middle" fill="#c9d1d9" font-size="10" font-family="'JetBrains Mono', 'SF Mono', monospace" font-weight="700">+2</text><text x="424" y="40.0" fill="#a6e3a1" font-size="10" font-style="italic">convergent</text><text x="0" y="68.0" fill="#c9d1d9" font-size="11" font-weight="600" font-family="'JetBrains Mono', 'SF Mono', monospace">Gold</text><rect x="86" y="56.0" width="72" height="18" rx="2" ry="2" fill="#1c2128" stroke="#30363d" stroke-width="0.5"/><rect x="122.0" y="56.0" width="21.6" height="18" rx="0" ry="0" fill="#a6e3a1" opacity="0.55"/><line x1="122.0" y1="56.0" x2="122.0" y2="74.0" stroke="#30363d" stroke-width="0.5"/><text x="122.0" y="68.0" text-anchor="middle" fill="#c9d1d9" font-size="10" font-family="'JetBrains Mono', 'SF Mono', monospace" font-weight="700">+3</text><rect x="170" y="56.0" width="72" height="18" rx="2" ry="2" fill="#1c2128" stroke="#30363d" stroke-width="0.5"/><rect x="206.0" y="56.0" width="21.6" height="18" rx="0" ry="0" fill="#a6e3a1" opacity="0.55"/><line x1="206.0" y1="56.0" x2="206.0" y2="74.0" stroke="#30363d" stroke-width="0.5"/><text x="206.0" y="68.0" text-anchor="middle" fill="#c9d1d9" font-size="10" font-family="'JetBrains Mono', 'SF Mono', monospace" font-weight="700">+3</text><rect x="254" y="56.0" width="72" height="18" rx="2" ry="2" fill="#1c2128" stroke="#30363d" stroke-width="0.5"/><rect x="290.0" y="56.0" width="28.8" height="18" rx="0" ry="0" fill="#a6e3a1" opacity="0.55"/><line x1="290.0" y1="56.0" x2="290.0" y2="74.0" stroke="#30363d" stroke-width="0.5"/><text x="290.0" y="68.0" text-anchor="middle" fill="#c9d1d9" font-size="10" font-family="'JetBrains Mono', 'SF Mono', monospace" font-weight="700">+4</text><rect x="338" y="56.0" width="72" height="18" rx="2" ry="2" fill="#1c2128" stroke="#30363d" stroke-width="0.5"/><rect x="374.0" y="56.0" width="21.6" height="18" rx="0" ry="0" fill="#a6e3a1" opacity="0.55"/><line x1="374.0" y1="56.0" x2="374.0" y2="74.0" stroke="#30363d" stroke-width="0.5"/><text x="374.0" y="68.0" text-anchor="middle" fill="#c9d1d9" font-size="10" font-family="'JetBrains Mono', 'SF Mono', monospace" font-weight="700">+3</text><text x="424" y="68.0" fill="#a6e3a1" font-size="10" font-style="italic">strong convergence</text><text x="0" y="96.0" fill="#c9d1d9" font-size="11" font-weight="600" font-family="'JetBrains Mono', 'SF Mono', monospace">Silver</text><rect x="86" y="84.0" width="72" height="18" rx="2" ry="2" fill="#1c2128" stroke="#30363d" stroke-width="0.5"/><text x="122.0" y="96.0" text-anchor="middle" fill="#484f58" font-size="9" font-family="'JetBrains Mono', 'SF Mono', monospace">—</text><rect x="170" y="84.0" width="72" height="18" rx="2" ry="2" fill="#1c2128" stroke="#30363d" stroke-width="0.5"/><rect x="206.0" y="84.0" width="21.6" height="18" rx="0" ry="0" fill="#a6e3a1" opacity="0.55"/><line x1="206.0" y1="84.0" x2="206.0" y2="102.0" stroke="#30363d" stroke-width="0.5"/><text x="206.0" y="96.0" text-anchor="middle" fill="#c9d1d9" font-size="10" font-family="'JetBrains Mono', 'SF Mono', monospace" font-weight="700">+3</text><rect x="254" y="84.0" width="72" height="18" rx="2" ry="2" fill="#1c2128" stroke="#30363d" stroke-width="0.5"/><rect x="290.0" y="84.0" width="21.6" height="18" rx="0" ry="0" fill="#a6e3a1" opacity="0.55"/><line x1="290.0" y1="84.0" x2="290.0" y2="102.0" stroke="#30363d" stroke-width="0.5"/><text x="290.0" y="96.0" text-anchor="middle" fill="#c9d1d9" font-size="10" font-family="'JetBrains Mono', 'SF Mono', monospace" font-weight="700">+3</text><rect x="338" y="84.0" width="72" height="18" rx="2" ry="2" fill="#1c2128" stroke="#30363d" stroke-width="0.5"/><text x="374.0" y="96.0" text-anchor="middle" fill="#484f58" font-size="9" font-family="'JetBrains Mono', 'SF Mono', monospace">—</text><text x="424" y="96.0" fill="#a6e3a1" font-size="10" font-style="italic">strong convergence</text></svg>
