<svg xmlns="http://www.w3.org/2000/svg" viewBox="0 0 580 108" style="max-width:100%; font-family:'Inter', system-ui, sans-serif"><text x="0" y="16.0" fill="#c9d1d9" font-size="10.5" font-weight="500">Inflation Spike (bull)</text><rect x="208" y="4" width="290" height="16" rx="2" ry="2" fill="#1c2128" stroke="#30363d" stroke-width="0.5"/><rect x="208" y="4" width="147.9" height="16" rx="2" ry="2" fill="#a6e3a1" opacity="0.75"/><line x1="463.2" y1="2" x2="463.2" y2="22" stroke="#c9d1d9" stroke-width="1.2" stroke-dasharray="2 1"/><text x="580" y="16.0" text-anchor="end" fill="#a6e3a1" font-size="10" font-family="'JetBrains Mono', 'SF Mono', monospace" font-weight="600">51.0% exposed</text><text x="0" y="40.0" fill="#c9d1d9" font-size="10.5" font-weight="500">Hard Recession (bear)</text><rect x="208" y="28" width="290" height="16" rx="2" ry="2" fill="#1c2128" stroke="#30363d" stroke-width="0.5"/><rect x="208" y="28" width="78.3" height="16" rx="2" ry="2" fill="#f38ba8" opacity="0.75"/><line x1="300.8" y1="26" x2="300.8" y2="46" stroke="#c9d1d9" stroke-width="1.2" stroke-dasharray="2 1"/><text x="580" y="40.0" text-anchor="end" fill="#f38ba8" font-size="10" font-family="'JetBrains Mono', 'SF Mono', monospace" font-weight="600">27.0% exposed</text><text x="0" y="64.0" fill="#c9d1d9" font-size="10.5" font-weight="500">Iran-US War (bull/bear)</text><rect x="208" y="52" width="290" height="16" rx="2" ry="2" fill="#1c2128" stroke="#30363d" stroke-width="0.5"/><rect x="208" y="52" width="63.8" height="16" rx="2" ry="2" fill="#fab387" opacity="0.75"/><line x1="242.8" y1="50" x2="242.8" y2="70" stroke="#c9d1d9" stroke-width="1.2" stroke-dasharray="2 1"/><text x="580" y="64.0" text-anchor="end" fill="#fab387" font-size="10" font-family="'JetBrains Mono', 'SF Mono', monospace" font-weight="600">22.0% exposed</text><text x="0" y="88.0" fill="#c9d1d9" font-size="10.5" font-weight="500">Risk-On Rally (mixed)</text><rect x="208" y="76" width="290" height="16" rx="2" ry="2" fill="#1c2128" stroke="#30363d" stroke-width="0.5"/><rect x="208" y="76" width="34.8" height="16" rx="2" ry="2" fill="#a6adc8" opacity="0.75"/><line x1="237.0" y1="74" x2="237.0" y2="94" stroke="#c9d1d9" stroke-width="1.2" stroke-dasharray="2 1"/><text x="580" y="88.0" text-anchor="end" fill="#a6adc8" font-size="10" font-family="'JetBrains Mono', 'SF Mono', monospace" font-weight="600">12.0% exposed</text></svg>
