<svg xmlns="http://www.w3.org/2000/svg" viewBox="0 0 360 300" style="max-width:100%; font-family:'Inter', system-ui, sans-serif"><rect x="70" y="32" width="264" height="230" fill="#1c2128" stroke="#30363d" stroke-width="1"/><rect x="70" y="32" width="132.0" height="115.0" fill="#f38ba8" opacity="0.08"/><rect x="202.0" y="32" width="132.0" height="115.0" fill="#fab387" opacity="0.08"/><rect x="70" y="147.0" width="132.0" height="115.0" fill="#cba6f7" opacity="0.08"/><rect x="202.0" y="147.0" width="132.0" height="115.0" fill="#a6e3a1" opacity="0.08"/><line x1="202.0" y1="32" x2="202.0" y2="262" stroke="#30363d" stroke-width="0.6" stroke-dasharray="2 2"/><line x1="70" y1="147.0" x2="334" y2="147.0" stroke="#30363d" stroke-width="0.6" stroke-dasharray="2 2"/><text x="78" y="46" fill="#f38ba8" font-size="9.5" font-weight="700" opacity="0.8">STAGFLATION</text><text x="326" y="46" text-anchor="end" fill="#fab387" font-size="9.5" font-weight="700" opacity="0.8">BOOM</text><text x="78" y="254" fill="#cba6f7" font-size="9.5" font-weight="700" opacity="0.8">RECESSION</text><text x="326" y="254" text-anchor="end" fill="#a6e3a1" font-size="9.5" font-weight="700" opacity="0.8">GOLDILOCKS</text><text x="202.0" y="282" text-anchor="middle" fill="#6e7681" font-size="9" font-weight="600">GROWTH →</text><text x="202.0" y="294" text-anchor="middle" fill="#484f58" font-size="8">← contracting    expanding →</text><text x="14" y="147.0" transform="rotate(-90 14 147.0)" text-anchor="middle" fill="#6e7681" font-size="9" font-weight="600">INFLATION →</text><text x="26" y="151.0" transform="rotate(-90 26 147.0)" text-anchor="middle" fill="#484f58" font-size="8">← falling      rising →</text><circle cx="175.6" cy="101.0" r="2.5" fill="#6e7681" opacity="0.15"/><line x1="175.6" y1="101.0" x2="162.4" y2="89.5" stroke="#6e7681" stroke-width="0.6" opacity="0.28"/><circle cx="162.4" cy="89.5" r="2.5" fill="#6e7681" opacity="0.28"/><line x1="162.4" y1="89.5" x2="149.2" y2="83.8" stroke="#6e7681" stroke-width="0.6" opacity="0.40"/><circle cx="149.2" cy="83.8" r="2.5" fill="#6e7681" opacity="0.40"/><line x1="149.2" y1="83.8" x2="136.0" y2="78.0" stroke="#6e7681" stroke-width="0.6" opacity="0.53"/><circle cx="136.0" cy="78.0" r="2.5" fill="#6e7681" opacity="0.53"/><line x1="136.0" y1="78.0" x2="129.4" y2="66.5" stroke="#6e7681" stroke-width="0.6" opacity="0.65"/><circle cx="129.4" cy="66.5" r="2.5" fill="#6e7681" opacity="0.65"/><circle cx="129.4" cy="66.5" r="11" fill="#89dceb" opacity="0.18"/><circle cx="129.4" cy="66.5" r="6" fill="#89dceb" stroke="#0d1117" stroke-width="1.5"/></svg>
